<svg width="20" height="21" viewBox="0 0 20 21" fill="none" xmlns="http://www.w3.org/2000/svg">
<path fill-rule="evenodd" clip-rule="evenodd" d="M6.81845 11.8362C6.39672 11.4145 6.18586 10.8579 6.18586 10.3004C6.18586 9.74295 6.39672 9.1863 6.81845 8.76457C7.3945 8.18852 7.3662 7.05263 6.9251 6.05559C6.75705 5.67508 6.52921 5.3212 6.2513 5.02956C5.98308 4.7476 5.67042 4.52462 5.32221 4.39536C4.47148 4.07784 3.35335 4.31537 2.06722 5.60236C1.07349 6.59608 2.01794 8.87596 3.76381 11.2586C4.48689 12.2458 5.35458 13.2452 6.29327 14.1833C7.23126 15.1213 8.23063 15.9889 9.21796 16.7127C11.6006 18.4586 13.8796 19.4031 14.8742 18.4093C16.1644 17.1191 16.4229 16.0228 16.1337 15.2027C16.0165 14.8707 15.8105 14.5758 15.548 14.3261C15.2717 14.0636 14.9364 13.8519 14.5761 13.6992C13.6171 13.2929 12.5086 13.2953 11.9293 13.8753C11.506 14.2987 10.9493 14.5104 10.3935 14.5104C9.83686 14.5104 9.28102 14.2987 8.85768 13.8753L6.81845 11.8362ZM16.582 10.1719C16.6385 10.4943 16.422 10.8021 16.0997 10.8587C15.7773 10.9152 15.4695 10.6987 15.413 10.3763C15.1892 9.1152 14.6067 7.98009 13.7753 7.08082C12.9375 6.17435 11.846 5.5054 10.6132 5.18546C10.2965 5.10306 10.1066 4.78071 10.189 4.464C10.2706 4.14812 10.5938 3.95745 10.9105 4.03985C12.3647 4.41713 13.6526 5.20726 14.6431 6.27851C15.6287 7.34332 16.3186 8.6855 16.582 10.1719ZM19.4742 9.31718C19.555 9.63306 19.3635 9.95542 19.0476 10.0362C18.7309 10.117 18.4094 9.92554 18.3286 9.60965C17.8891 7.89446 17.0206 6.34887 15.8442 5.0951C14.6631 3.83559 13.1708 2.87092 11.492 2.32408C11.181 2.22309 11.0105 1.88861 11.1115 1.57757C11.2125 1.26653 11.547 1.09606 11.8588 1.19705C13.7308 1.80702 15.3918 2.88153 16.7078 4.28328C18.0158 5.67853 18.9829 7.40177 19.4741 9.31737L19.4742 9.31718ZM7.65857 10.9968L9.69612 13.0344C9.88759 13.2258 10.1396 13.3212 10.3925 13.3212C10.6454 13.3212 10.8975 13.2258 11.0889 13.0344C12.0269 12.0964 13.6687 12.0301 15.0347 12.6086C15.5251 12.8162 15.984 13.1063 16.3645 13.4674C16.758 13.8414 17.0699 14.2915 17.2516 14.8077C17.683 16.0309 17.3882 17.5732 15.7134 19.2488C14.2139 20.7483 11.3612 19.7522 8.51736 17.6678C7.47274 16.9019 6.42576 15.9946 5.45306 15.0227C4.48116 14.0508 3.57388 13.0038 2.808 11.9584C0.724453 9.11375 -0.272645 6.26103 1.22693 4.76156C2.90495 3.08353 4.47551 2.81694 5.73424 3.28552C6.261 3.48184 6.72311 3.80742 7.10929 4.21219C7.48496 4.60727 7.78955 5.07746 8.01091 5.57756C8.633 6.98493 8.59989 8.66213 7.65787 9.60338C7.46478 9.79647 7.36864 10.0485 7.36864 10.2998C7.36864 10.5519 7.46559 10.8039 7.65867 10.997L7.65857 10.9968Z" fill="#14142A"/>
</svg>
